<?xml version="1.0" standalone="no"?>
<!DOCTYPE svg PUBLIC "-//W3C//DTD SVG 20010904//EN"
 "http://www.w3.org/TR/2001/REC-SVG-20010904/DTD/svg10.dtd">
<svg version="1.0" xmlns="http://www.w3.org/2000/svg"
 width="511.000000pt" height="511.000000pt" viewBox="0 0 511.000000 511.000000"
 preserveAspectRatio="xMidYMid meet">
<metadata>
Created by potrace 1.16, written by Peter Selinger 2001-2019
</metadata>
<g transform="translate(0.000000,511.000000) scale(0.100000,-0.100000)"
fill="#000000" stroke="none">
<path d="M2390 5080 c-695 -45 -1337 -372 -1781 -905 -288 -348 -472 -750
-550 -1209 -30 -173 -37 -503 -15 -690 148 -1276 1224 -2236 2506 -2236 499 0
978 144 1390 418 624 415 1030 1075 1116 1818 22 187 15 517 -15 690 -131 770
-575 1406 -1249 1792 -411 236 -924 353 -1402 322z m410 -1495 l0 -515 515 0
515 0 2 -1020 3 -1020 -1283 -2 -1282 -3 0 1538 0 1537 765 0 765 0 0 -515z
m1030 85 l0 -430 -435 0 -435 0 0 430 0 430 435 0 435 0 0 -430z"/>
<path d="M1797 3760 c-93 -24 -171 -85 -217 -172 -46 -86 -53 -193 -19 -283
30 -81 112 -164 192 -193 63 -24 157 -29 220 -11 37 10 37 10 37 63 l0 53 -57
-20 c-49 -16 -66 -18 -115 -9 -207 38 -277 288 -118 424 66 57 170 75 247 43
19 -8 37 -15 39 -15 2 0 4 23 4 50 0 46 -3 52 -27 61 -39 15 -141 20 -186 9z"/>
<path d="M2107 3752 c-10 -10 -17 -24 -17 -30 0 -26 163 -588 176 -609 10 -16
24 -23 44 -23 20 0 34 7 43 23 7 12 51 156 97 319 82 291 83 298 65 318 -22
25 -47 26 -67 3 -8 -10 -42 -114 -74 -230 -32 -117 -61 -213 -64 -213 -3 0
-31 93 -63 208 -33 114 -65 217 -73 230 -17 27 -45 28 -67 4z"/>
<path d="M1580 2635 l0 -105 100 0 100 0 0 105 0 105 -100 0 -100 0 0 -105z"/>
<path d="M2200 2630 l0 -70 685 0 685 0 0 70 0 70 -685 0 -685 0 0 -70z"/>
<path d="M1580 2215 l0 -105 100 0 100 0 0 105 0 105 -100 0 -100 0 0 -105z"/>
<path d="M2200 2210 l0 -70 685 0 685 0 0 70 0 70 -685 0 -685 0 0 -70z"/>
<path d="M2720 1820 l0 -70 405 0 405 0 0 70 0 70 -405 0 -405 0 0 -70z"/>
<path d="M2720 1400 l0 -70 405 0 405 0 0 70 0 70 -405 0 -405 0 0 -70z"/>
</g>
</svg>
